<svg id="Layer_1" data-name="Layer 1" xmlns="http://www.w3.org/2000/svg" xmlns:xlink="http://www.w3.org/1999/xlink" width="400" height="72" viewBox="0 0 400 72"><defs><style>.cls-1{fill:none;}.cls-2{fill:#fff;}.cls-3{clip-path:url(#clip-path);}.cls-4{fill:#0599a8;}</style><clipPath id="clip-path"><rect class="cls-1" x="5" y="9.5" width="267.5892" height="53"/></clipPath></defs><rect class="cls-2" width="400" height="72"/><g class="cls-3"><g class="cls-3"><path class="cls-4" d="M64.1812,47.8837q2.6145-.2823,3.2673-.9644.654-.6838.6534-3.5665V24.03q0-2.3952-.7294-3.1141a5.3811,5.3811,0,0,0-3.1913-.8931V19.195H76.5547v.8276a5.3913,5.3913,0,0,0-3.1843.8931q-.7382.7171-.7376,3.1141v8.6924H86.1834V24.03q0-2.3952-.7189-3.1141t-3.2029-.8931V19.195H94.635v.8276a5.3814,5.3814,0,0,0-3.1913.8931q-.7293.7171-.7294,3.1141V43.8753q0,2.4267.7294,3.1083a5.7861,5.7861,0,0,0,3.1913.9v.8276H82.2616v-.8276q2.6354-.26,3.2789-.9539.6417-.6943.6429-3.577v-8.67H72.6328v9.1927q0,2.4267.7376,3.12a5.6408,5.6408,0,0,0,3.1843.8885v.8276H64.1812Z"/><path class="cls-4" d="M108.9582,30.4027a7.7705,7.7705,0,0,1,2.3087,6.0224H97.4345q.2175,5.043,2.2877,7.347a6.3827,6.3827,0,0,0,4.9015,2.3028,6.17,6.17,0,0,0,3.8552-1.1947,12.01,12.01,0,0,0,2.8979-3.3911l.7621.2618a12.4241,12.4241,0,0,1-3.3432,5.1271,8.3345,8.3345,0,0,1-6.0026,2.3566,7.3427,7.3427,0,0,1-6.3276-3.093,11.8559,11.8559,0,0,1-2.2327-7.1237,11.59,11.59,0,0,1,2.5916-7.5585,8.3019,8.3019,0,0,1,6.753-3.1819,7.6971,7.6971,0,0,1,5.3808,2.1252M98.524,32.0684a8.6259,8.6259,0,0,0-1.0018,2.9633h9.1927a9.061,9.061,0,0,0-.8276-3.2462,3.7613,3.7613,0,0,0-3.5723-1.9171,4.1655,4.1655,0,0,0-3.791,2.2"/><path class="cls-4" d="M117.4156,39.1038a47.7249,47.7249,0,0,1,7.9945-3.55V33.7021a7.6361,7.6361,0,0,0-.436-3.0931q-.74-1.4589-3.0708-1.46a4.23,4.23,0,0,0-2.1135.5669,1.799,1.799,0,0,0-1.0018,1.612,5.9206,5.9206,0,0,0,.1087.8826,6.273,6.273,0,0,1,.1087.7949,1.8119,1.8119,0,0,1-.8054,1.6985,2.0256,2.0256,0,0,1-1.09.2828,1.8274,1.8274,0,0,1-1.5033-.6417,2.2106,2.2106,0,0,1-.5225-1.4273,4.538,4.538,0,0,1,1.8844-3.1913,8.0973,8.0973,0,0,1,5.5221-1.6658q4.2258,0,5.7291,2.7448a9.4855,9.4855,0,0,1,.8054,4.3777v8.7357a5.8594,5.8594,0,0,0,.1742,1.7429,1.138,1.138,0,0,0,1.1771.8487,1.961,1.961,0,0,0,.8277-.152,8.42,8.42,0,0,0,1.1327-.74V46.75a7.0656,7.0656,0,0,1-1.5033,1.3946,4.3731,4.3731,0,0,1-2.4829.8276,2.4255,2.4255,0,0,1-2.1462-.9574,4.2963,4.2963,0,0,1-.7294-2.2876,20.5046,20.5046,0,0,1-2.8324,2.1345,7.42,7.42,0,0,1-3.7687,1.176,4.5266,4.5266,0,0,1-3.2451-1.3175,4.4372,4.4372,0,0,1-1.3735-3.3444,6.2061,6.2061,0,0,1,3.16-5.272m7.9945-2.4606a19.9709,19.9709,0,0,0-4.1393,1.8294q-3.1368,1.9394-3.1363,4.4011a3.3472,3.3472,0,0,0,1.3069,2.9189,3.1713,3.1713,0,0,0,1.8949.61,5.2048,5.2048,0,0,0,2.7564-.8066,2.3663,2.3663,0,0,0,1.3174-2.048Z"/><path class="cls-4" d="M132.3132,48.1011a5.1612,5.1612,0,0,0,2.7447-.8171,3.1543,3.1543,0,0,0,.7189-2.428V23.5728a5.553,5.553,0,0,0-.24-1.9826,1.7557,1.7557,0,0,0-1.764-.9141,3.7471,3.7471,0,0,0-.6651.0643q-.3594.0666-.9036.1964v-.7189q2.94-.7839,7.0792-2.0913a.17.17,0,0,1,.1859.1309,3.0939,3.0939,0,0,1,.0315.567v26.118a3.2708,3.2708,0,0,0,.6535,2.4514,5.096,5.096,0,0,0,2.7026.7072v.61h-10.544Z"/><path class="cls-4" d="M153.6216,28.6265v1.5688h-4.4444l-.0432,12.5476a8.4155,8.4155,0,0,0,.2829,2.5051,2.0131,2.0131,0,0,0,2.048,1.5021,2.4713,2.4713,0,0,0,1.3618-.3694,7.1223,7.1223,0,0,0,1.3174-1.1771l.567.4793-.48.6534a6.9648,6.9648,0,0,1-2.3952,2.1567,5.4517,5.4517,0,0,1-2.44.6324,3.4334,3.4334,0,0,1-3.4858-2.2876,9.4623,9.4623,0,0,1-.5-3.4414V30.1953h-2.3754a.6183.6183,0,0,1-.1625-.1309.2574.2574,0,0,1-.0549-.1742.5188.5188,0,0,1,.0982-.3378,6.3969,6.3969,0,0,1,.6207-.5553,18.7736,18.7736,0,0,0,2.1673-2.0153q.6645-.7732,3.1258-4.0843a.7251.7251,0,0,1,.3378.0432c.0362.0292.0549.138.0549.3273v5.3585Z"/><path class="cls-4" d="M155.1707,48.1011a3.8078,3.8078,0,0,0,2.3414-.8814q.5559-.6435.5565-3.0393V23.2677a3.8981,3.8981,0,0,0-.3168-1.7967q-.3156-.5769-1.5349-.5775a3.243,3.243,0,0,0-.4687.0327c-.1532.0211-.3238.0468-.512.076v-.7843q.9591-.2825,2.3636-.6862,1.4046-.4016,1.95-.5775l2.0913-.6534.0433.1531V31.8291a14.23,14.23,0,0,1,2.44-2.31,7.2094,7.2094,0,0,1,4.1393-1.3069,4.778,4.778,0,0,1,4.8138,2.9633,10.2553,10.2553,0,0,1,.6978,4.1171V44.18a5.53,5.53,0,0,0,.5331,3.0054,3.225,3.225,0,0,0,2.1894.9153v.61h-9.4323v-.61a4.0649,4.0649,0,0,0,2.44-.8931q.5436-.6312.5448-3.0276V35.3582a7.1645,7.1645,0,0,0-.7084-3.42,2.7571,2.7571,0,0,0-2.6688-1.3069,5.35,5.35,0,0,0-3.2894,1.2192q-1.5887,1.22-1.59,1.59V44.18q0,2.4408.5657,3.05a4.24,4.24,0,0,0,2.4186.8709v.61h-9.6065Z"/><path class="cls-4" d="M178.8725,41.8494h.7189a11.3688,11.3688,0,0,0,1.3478,3.8119,4.9257,4.9257,0,0,0,4.4549,2.44,3.57,3.57,0,0,0,2.5752-.9036,3.094,3.094,0,0,0,.9457-2.3415,3.2338,3.2338,0,0,0-.5447-1.7651,5.5953,5.5953,0,0,0-1.9172-1.6552l-2.44-1.3946a13.9438,13.9438,0,0,1-3.9429-2.8967,5.088,5.088,0,0,1-1.2636-3.4426,5.1456,5.1456,0,0,1,1.7429-4.0072,6.296,6.296,0,0,1,4.3778-1.5687,8.4961,8.4961,0,0,1,2.5389.436,11.6991,11.6991,0,0,0,1.5571.4348,1.0982,1.0982,0,0,0,.5658-.1087.9068.9068,0,0,0,.3051-.3483h.5225l.1531,6.0774h-.6756a10.0607,10.0607,0,0,0-1.176-3.2883,4.3231,4.3231,0,0,0-3.9-2.1789,3.0932,3.0932,0,0,0-3.2672,3.1363q0,2.0042,3.0066,3.5723l2.8745,1.5466q4.6413,2.5284,4.64,5.8822a5.2622,5.2622,0,0,1-1.9242,4.2047,7.516,7.516,0,0,1-5.0335,1.6331,11.7529,11.7529,0,0,1-2.9575-.4349,13.2778,13.2778,0,0,0-1.958-.436.643.643,0,0,0-.4559.1847,1.2878,1.2878,0,0,0-.3051.4465h-.5657Z"/><path class="cls-4" d="M209.0422,29.57a3.8708,3.8708,0,0,1,1.972,3.0721,2.0848,2.0848,0,0,1-.5015,1.3349,1.8721,1.8721,0,0,1-1.5465.6184,1.9346,1.9346,0,0,1-1.34-.5225,3.0311,3.0311,0,0,1-.8392-1.5243l-.2607-1.0463a2.6555,2.6555,0,0,0-.9808-1.6342,3.4952,3.4952,0,0,0-1.8949-.457,5.1628,5.1628,0,0,0-4.193,2.1707,9.0566,9.0566,0,0,0-1.71,5.7688,9.8646,9.8646,0,0,0,1.8843,5.9115,5.9491,5.9491,0,0,0,5.0862,2.6185,6.0913,6.0913,0,0,0,4.0306-1.4846,13.8614,13.8614,0,0,0,2.2654-2.7062l.609.3706a17.2636,17.2636,0,0,1-2.6138,4.1428,8.0046,8.0046,0,0,1-6.1,2.9224,8.17,8.17,0,0,1-6.012-2.6793A9.9708,9.9708,0,0,1,194.284,39.17a11.346,11.346,0,0,1,2.8535-7.7549,9.1882,9.1882,0,0,1,7.21-3.2462,7.9021,7.9021,0,0,1,4.6946,1.4"/><path class="cls-4" d="M215.21,31.2732a9.202,9.202,0,0,1,7.0909-2.9949,9.6888,9.6888,0,0,1,7.1447,2.8312,10.191,10.191,0,0,1,2.8324,7.5375,11.2176,11.2176,0,0,1-2.7447,7.5375,8.9211,8.9211,0,0,1-7.1015,3.2017,9.3627,9.3627,0,0,1-7.08-3.0708,10.8,10.8,0,0,1-2.8966-7.7117,10.4292,10.4292,0,0,1,2.7552-7.3305m3.4788-.5553q-2.1829,1.9815-2.1824,6.8408a15.3531,15.3531,0,0,0,1.7569,7.2312q1.7569,3.3561,4.8781,3.3549a4.1466,4.1466,0,0,0,3.7641-2.2432,11.5158,11.5158,0,0,0,1.3209-5.8822,15.566,15.566,0,0,0-1.681-7.1015q-1.68-3.3333-4.8664-3.3327a4.3364,4.3364,0,0,0-2.99,1.1327"/><path class="cls-4" d="M231.7937,57.7074q2.034-.13,2.5857-.8709a3.9346,3.9346,0,0,0,.5517-2.3309V33.594a3.6287,3.6287,0,0,0-.4032-2.124,1.9454,1.9454,0,0,0-1.5138-.4687,4.431,4.431,0,0,0-.4466.021c-.1391.0152-.3378.0444-.6.0877v-.7189l2.07-.6757q.1086-.021,4.3777-1.5021a.1745.1745,0,0,1,.1637.0982.4607.4607,0,0,1,.0549.228v2.94a15.9185,15.9185,0,0,1,2.5262-2.1345,7.5408,7.5408,0,0,1,4.0305-1.2193,6.5808,6.5808,0,0,1,5.1738,2.5566,10.4767,10.4767,0,0,1,2.1673,6.9962,13.04,13.04,0,0,1-2.6033,7.9,7.839,7.839,0,0,1-6.5462,3.5467,6.5565,6.5565,0,0,1-2.1134-.3051A6.2858,6.2858,0,0,1,238.7,47.1435v7.1447q0,2.2.7177,2.7014a7.2483,7.2483,0,0,0,3.1375.6745v.7622H231.7937Zm8.5942-10.8141a4.7452,4.7452,0,0,0,2.6465.7294,4.8472,4.8472,0,0,0,4.0189-2.339,11.0814,11.0814,0,0,0,1.6669-6.5158q0-4.0032-1.7324-5.9828a5.208,5.208,0,0,0-4.0189-1.98,4.8152,4.8152,0,0,0-2.9411.99A2.6474,2.6474,0,0,0,238.7,33.7425V44.6851a4.4011,4.4011,0,0,0,1.688,2.2082"/><path class="cls-4" d="M269.4084,30.4027a7.7705,7.7705,0,0,1,2.3087,6.0224H257.8847q.2175,5.043,2.2877,7.347a6.3826,6.3826,0,0,0,4.9014,2.3028,6.17,6.17,0,0,0,3.8553-1.1947,12.0078,12.0078,0,0,0,2.8978-3.3911l.7622.2618a12.4241,12.4241,0,0,1-3.3432,5.1271,8.3345,8.3345,0,0,1-6.0026,2.3566,7.3427,7.3427,0,0,1-6.3276-3.093,11.8559,11.8559,0,0,1-2.2327-7.1237,11.59,11.59,0,0,1,2.5915-7.5585,8.3022,8.3022,0,0,1,6.7531-3.1819,7.6971,7.6971,0,0,1,5.3808,2.1252m-10.4342,1.6657a8.6238,8.6238,0,0,0-1.0018,2.9633h9.1927a9.061,9.061,0,0,0-.8276-3.2462,3.7613,3.7613,0,0,0-3.5723-1.9171,4.1655,4.1655,0,0,0-3.791,2.2"/><path class="cls-4" d="M31.5,9.5A26.5,26.5,0,1,0,58,36,26.5,26.5,0,0,0,31.5,9.5M7.2818,30.5265l-.1566-.332q.2559-1.0784.602-2.117C10.154,34.0111,15.0449,41.41,23.34,43.6293a19.8779,19.8779,0,0,0,4.8056.664c.1216.0012.13-.0655.007-.0807-5.0686-.6253-11.4242-3.9-14.9311-12.0742A26.97,26.97,0,0,1,11.2154,21.294,25.0751,25.0751,0,0,1,37.84,11.7529,17.7,17.7,0,0,0,22.3439,16.08c-4.0622,3.971-5.28,9.5738-3.4321,15.7763,2.6758,8.9788,8.84,12.1806,13.4372,11.3553a6.0682,6.0682,0,0,0,3.92-2.3812,5.8073,5.8073,0,0,0,.9376-4.4525,4.9332,4.9332,0,0,0-5.7268-3.9815,3.7013,3.7013,0,0,0-2.9715,4.4491s.0339.1426-.0573.1659-.1449-.104-.1449-.104a3.6286,3.6286,0,0,1-.0094-2.4057,4.218,4.218,0,0,1,3.1223-2.7973,5.4252,5.4252,0,0,1,6.58,4.4771,5.9929,5.9929,0,0,1-1.453,5.5409,8.4607,8.4607,0,0,1-3.9569,2.4127,20.6365,20.6365,0,0,1-9.0957.2677c-8.371-1.68-13.4209-8.413-16.2112-13.8767m27.5653-2.7389c5.0674.6254,11.4231,3.9,14.9311,12.0753a26.9631,26.9631,0,0,1,2.006,10.8433A25.0824,25.0824,0,0,1,25.16,60.2485,17.7058,17.7058,0,0,0,40.6568,55.92c4.061-3.971,5.2791-9.5738,3.4309-15.7775-2.6757-8.9776-8.84-12.18-13.4372-11.3541a6.0659,6.0659,0,0,0-3.9183,2.3812,5.8065,5.8065,0,0,0-.9387,4.4526A4.9353,4.9353,0,0,0,31.52,39.6034a3.7011,3.7011,0,0,0,2.9715-4.449s-.0339-.1426.0573-.166.145.104.145.104a3.6332,3.6332,0,0,1,.0105,2.4057,4.2232,4.2232,0,0,1-3.1235,2.7985,5.4269,5.4269,0,0,1-6.58-4.4783,5.9906,5.9906,0,0,1,1.4542-5.5408,8.4646,8.4646,0,0,1,3.9558-2.4139,20.6773,20.6773,0,0,1,9.0957-.2677c8.3709,1.6809,13.4208,8.4153,16.2111,13.8779l.1567.3331c-.1695.7178-.3718,1.4227-.6021,2.1158C52.8456,37.9891,47.9546,30.59,39.66,28.3721a19.7519,19.7519,0,0,0-4.8056-.664c-.1216-.0024-.13.0643-.007.0795"/></g></g></svg>